<svg width="50" height="50" viewBox="0 0 50 50" fill="none" xmlns="http://www.w3.org/2000/svg">
<path fill-rule="evenodd" clip-rule="evenodd" d="M48.2977 8.62892C48.8469 7.60626 47.6016 7.91642 47.6016 7.91642C47.6016 7.91642 39.2992 15.8859 38.1453 14.9094C36.9914 13.9328 46.2742 6.29454 45.1758 4.8672C44.1594 3.53673 36.0039 13.0352 35.0242 11.875C34.0539 10.7172 42.0078 2.40392 42.0078 2.40392C42.0078 2.40392 42.3102 1.15235 41.2953 1.70079C28.7898 8.42579 27.1969 14.6953 27.1969 14.6953C27.1969 14.6953 26.7664 15.9164 27.7008 16.8602C27.7922 16.9422 4.88515 39.7195 1.81875 42.7945C0.326558 44.2852 5.80156 49.6703 7.28437 48.1797C10.3516 45.1047 33.0844 22.1617 33.1664 22.2469C34.1094 23.1883 35.3273 22.7563 35.3273 22.7563C35.3273 22.7563 41.5867 21.1586 48.2977 8.62892" fill="#F2994A"/>
<path fill-rule="evenodd" clip-rule="evenodd" d="M25.0219 31.6461C31.118 37.7555 41.3953 48.0516 41.3953 48.0516C41.3953 48.0516 45.8813 46.5836 46.5133 42.7946L30.2047 26.4539C28.4755 28.1831 26.7479 29.9138 25.0219 31.6461V31.6461ZM17 26.3508C19.1867 24.1659 21.3708 21.9784 23.5523 19.7883L5.82735 2.02971C5.82735 2.02971 5.50703 1.69377 4.80157 2.40237C3.40078 3.79846 0.690628 12.6938 12.1805 24.2008C14.0016 26.0258 15.5859 26.2789 17 26.3508" fill="#F2994A"/>
</svg>
